<svg width="28" height="29" viewBox="0 0 28 29" fill="none" xmlns="http://www.w3.org/2000/svg">
<path id="Vector" d="M25.4131 14.5L25.6396 14.2654C28.7868 11.0058 28.7868 5.70424 25.6396 2.44468C22.4925 -0.814892 17.3737 -0.814892 14.2265 2.44468L14 2.67931L13.7735 2.44468C10.6263 -0.814892 5.50754 -0.814892 2.36038 2.44468C-0.786792 5.70424 -0.786792 11.0058 2.36038 14.2654L2.58692 14.5L2.36038 14.7346C-0.786792 17.9942 -0.786792 23.2958 2.36038 26.5553C5.50754 29.8149 10.6263 29.8149 13.7735 26.5553L14 26.3207L14.2265 26.5553C17.3737 29.8149 22.4925 29.8149 25.6396 26.5553C28.7868 23.2958 28.7868 17.9942 25.6396 14.7346L25.4131 14.5ZM15.2185 3.47835C17.8146 0.789526 22.0455 0.789526 24.6416 3.47835C27.2377 6.16718 27.2377 10.5492 24.6416 13.238L17.0798 21.0762C16.4981 21.6787 16.3573 22.3889 17.0431 23.1055L17.3002 23.3655C18.7514 24.8685 21.1087 24.8685 22.5598 23.3655C24.0109 21.8626 24.0109 19.4211 22.5598 17.9181L22.3333 17.6835L22.8782 17.1191L23.1047 17.3537C24.8559 19.1674 24.8559 22.1162 23.1047 23.9299C21.3536 25.7436 18.5065 25.7436 16.7553 23.9299C16.7553 23.9299 16.6451 23.8348 16.4981 23.6763C16.3634 23.5304 14.998 22.0972 16.5349 20.5055L24.0967 12.6673C26.3927 10.2892 26.3927 6.4145 24.0967 4.03641C21.8006 1.65832 18.0595 1.65832 15.7634 4.03641L15.5368 4.27105L14.9919 3.70665L15.2185 3.47201V3.47835ZM21.5618 22.3382C20.6617 23.2704 19.1922 23.2704 18.2922 22.3382L18.0656 22.1035L21.3352 18.7171L21.5618 18.9518C22.4618 19.884 22.4618 21.406 21.5618 22.3382ZM3.35841 3.47835C5.95452 0.789526 10.1854 0.789526 12.7815 3.47835L20.3433 11.3165L19.7984 11.8809L12.2366 4.04275C9.94052 1.66466 6.19943 1.66466 3.90335 4.04275C1.60726 6.42084 1.60726 10.2955 3.90335 12.6736L4.12989 12.9083L3.58495 13.4727L3.35841 13.238C0.762301 10.5492 0.762301 6.16718 3.35841 3.47835ZM18.0717 6.89646L18.2983 6.66182C19.1983 5.72961 20.6678 5.72961 21.5679 6.66182C22.468 7.59403 22.468 9.11601 21.5679 10.0482L21.3414 10.2829L18.0717 6.89646ZM6.16269 17.1698L5.44019 17.9181C3.98907 19.4211 3.98907 21.8626 5.44019 23.3655C6.89132 24.8685 9.24863 24.8685 10.6998 23.3655L10.9263 23.1309C12.0346 21.9831 10.6998 20.8416 10.0569 20.1757L9.6405 19.7381L7.65668 17.6835L8.20162 17.1191L10.8406 19.8523L11.0488 20.0679C12.9897 22.0782 11.6182 23.5367 11.4712 23.6889L11.2447 23.9236C9.49355 25.7373 6.6464 25.7373 4.89526 23.9236C3.14411 22.1099 3.14411 19.1611 4.89526 17.3474L12.4632 9.50918L13.0081 10.0736L9.24251 13.9736L6.16269 17.1635V17.1698ZM6.65865 18.7171L9.92828 22.1035L9.70173 22.3382C8.80166 23.2704 7.33217 23.2704 6.4321 22.3382C5.53203 21.406 5.53203 19.884 6.4321 18.9518L6.65865 18.7171ZM14 11.1136L17.2696 14.5L14 17.8864L10.7304 14.5L14 11.1136ZM10.6998 5.63449C9.24863 4.13153 6.89132 4.13153 5.44019 5.63449C3.98907 7.13744 3.98907 9.57894 5.44019 11.0819L5.66674 11.3165L5.1218 11.8809L4.89526 11.6463C3.14411 9.8326 3.14411 6.88377 4.89526 5.07009C6.6464 3.2564 9.49355 3.2564 11.2447 5.07009L18.8065 12.9083L18.2615 13.4727L10.6998 5.63449ZM9.92828 6.89646L6.65865 10.2829L6.4321 10.0482C5.53203 9.11601 5.53203 7.59403 6.4321 6.66182C7.33217 5.72961 8.80166 5.72961 9.70173 6.66182L9.92828 6.89646ZM24.6416 25.5217C22.0455 28.2105 17.8146 28.2105 15.2185 25.5217L14.9368 25.2616C14.8756 25.1982 14.3551 24.6592 13.9694 23.8348C13.6143 24.6148 13.1367 25.1538 13.0081 25.2934L12.7815 25.528C10.1854 28.2168 5.95452 28.2168 3.35841 25.528C0.762301 22.8392 0.762301 18.4571 3.35841 15.7683L10.9202 7.93013L11.4651 8.49453L3.90335 16.3327C1.60726 18.7108 1.60726 22.5855 3.90335 24.9636C6.19943 27.3417 9.94052 27.3417 12.2366 24.9636L12.4754 24.7163C13.0693 24.0758 13.5224 23.0865 13.553 22.0655C13.553 22.0338 13.553 22.0084 13.553 21.9767C13.5592 21.1777 13.3081 20.3723 12.6652 19.7064C12.2672 19.2942 11.4651 18.4635 11.4651 18.4635L11.3488 18.3366L9.1874 16.0981L9.73234 15.5337L12.7448 18.6537L12.9958 18.9201C13.4428 19.383 13.7612 19.8459 13.9816 20.2962C14.2021 19.865 14.5143 19.4147 14.949 18.9645L14.9919 18.9137L22.5598 11.0756C24.0109 9.5726 24.0109 7.1311 22.5598 5.62814C21.1087 4.12519 18.7514 4.12519 17.3002 5.62814L17.0737 5.86278L16.5288 5.29838L16.7553 5.06374C18.5065 3.25005 21.3536 3.25005 23.1047 5.06374C24.8559 6.87743 24.8559 9.82626 23.1047 11.64L15.5368 19.4781L15.2981 19.7255C13.7857 21.2918 14.3796 23.5367 15.4879 24.6846L15.7634 24.9572C18.0595 27.3353 21.8006 27.3353 24.0967 24.9572C26.3927 22.5792 26.3927 18.7045 24.0967 16.3264L23.8701 16.0917L24.415 15.5273L24.6416 15.762C27.2377 18.4508 27.2377 22.8328 24.6416 25.5217Z" fill="black"/>
</svg>
